<svg width="17" height="21" viewBox="0 0 17 21" fill="none" xmlns="http://www.w3.org/2000/svg">
    <path d="M5 12.5C5.66304 12.5 6.29893 12.2366 6.76777 11.7678C7.23661 11.2989 7.5 10.663 7.5 10C7.5 8.62 7 8 6.5 7C5.428 4.857 6.276 2.946 8.5 1C9 3.5 10.5 5.9 12.5 7.5C14.5 9.1 15.5 11 15.5 13C15.5 13.9193 15.3189 14.8295 14.9672 15.6788C14.6154 16.5281 14.0998 17.2997 13.4497 17.9497C12.7997 18.5998 12.0281 19.1154 11.1788 19.4672C10.3295 19.8189 9.41925 20 8.5 20C7.58075 20 6.67049 19.8189 5.82122 19.4672C4.97194 19.1154 4.20026 18.5998 3.55025 17.9497C2.90024 17.2997 2.38463 16.5281 2.03284 15.6788C1.68106 14.8295 1.5 13.9193 1.5 13C1.5 11.847 1.933 10.706 2.5 10C2.5 10.663 2.76339 11.2989 3.23223 11.7678C3.70107 12.2366 4.33696 12.5 5 12.5Z" stroke="white" stroke-width="2" stroke-linecap="round" stroke-linejoin="round"/>
</svg>
