<svg width="41" height="35" viewBox="0 0 41 35" fill="none" xmlns="http://www.w3.org/2000/svg">
<path d="M26.4634 6.82927C28.3415 6.82927 29.878 5.29268 29.878 3.41463C29.878 1.53659 28.3415 0 26.4634 0C24.5854 0 23.0488 1.53659 23.0488 3.41463C23.0488 5.29268 24.5854 6.82927 26.4634 6.82927ZM8.53658 17.9268C3.7561 17.9268 0 21.6829 0 26.4634C0 31.2439 3.7561 35 8.53658 35C13.3171 35 17.0732 31.2439 17.0732 26.4634C17.0732 21.6829 13.3171 17.9268 8.53658 17.9268ZM8.53658 32.439C5.29268 32.439 2.56098 29.7073 2.56098 26.4634C2.56098 23.2195 5.29268 20.4878 8.53658 20.4878C11.7805 20.4878 14.5122 23.2195 14.5122 26.4634C14.5122 29.7073 11.7805 32.439 8.53658 32.439ZM18.439 15.3659L22.5366 11.2683L23.9024 12.6341C26.1219 14.8537 29.0244 16.2195 32.6098 16.2195V12.8049C30.0488 12.8049 28 11.7805 26.4634 10.2439L23.2195 7C22.3659 6.31707 21.5122 5.97561 20.4878 5.97561C19.4634 5.97561 18.6098 6.31707 18.0976 7L13.3171 11.7805C12.6341 12.4634 12.2927 13.3171 12.2927 14.1707C12.2927 15.1951 12.6341 16.0488 13.3171 16.561L18.7805 21.3415V29.878H22.1951V19.2927L18.439 15.3659ZM32.439 17.9268C27.6585 17.9268 23.9024 21.6829 23.9024 26.4634C23.9024 31.2439 27.6585 35 32.439 35C37.2195 35 40.9756 31.2439 40.9756 26.4634C40.9756 21.6829 37.2195 17.9268 32.439 17.9268ZM32.439 32.439C29.1951 32.439 26.4634 29.7073 26.4634 26.4634C26.4634 23.2195 29.1951 20.4878 32.439 20.4878C35.6829 20.4878 38.4146 23.2195 38.4146 26.4634C38.4146 29.7073 35.6829 32.439 32.439 32.439Z" fill="white"/>
</svg>
