<svg width="199" height="150" viewBox="0 0 199 150" fill="none" xmlns="http://www.w3.org/2000/svg">
<g clip-path="url(#clip0)">
<path d="M93.2768 125.922C93.2768 125.922 95.8031 121.777 99.0465 124.228C102.29 126.678 108.296 130.813 108.296 130.813C108.296 130.813 109.527 133.458 106.342 132.464C103.158 131.471 92.7637 129.872 92.7637 129.872L93.2768 125.922Z" fill="#FEB8B8"/>
<path d="M22.6767 99.5998C23.4818 93.1262 27.4937 86.7479 33.6675 84.6412C31.2327 91.3043 31.2333 98.6139 33.669 105.277C34.6177 107.843 35.94 110.598 35.0477 113.184C34.4925 114.794 33.1342 116.025 31.6159 116.795C30.0976 117.565 28.4126 117.931 26.7486 118.291L26.4211 118.562C23.7796 112.597 21.8716 106.073 22.6767 99.5998Z" fill="#EFEFEF"/>
<path d="M33.7288 84.7636C30.1334 88.7921 27.8988 93.851 27.3424 99.2217C27.202 100.376 27.2445 101.545 27.4682 102.686C27.722 103.79 28.2669 104.806 29.0463 105.629C29.7576 106.41 30.5756 107.127 31.0845 108.068C31.3379 108.553 31.4858 109.087 31.5185 109.633C31.5512 110.18 31.468 110.727 31.2743 111.24C30.825 112.528 29.9394 113.579 29.0377 114.576C28.0365 115.683 26.979 116.817 26.5534 118.285C26.5018 118.463 26.2289 118.372 26.2804 118.195C27.0208 115.641 29.4998 114.191 30.682 111.89C31.2336 110.817 31.4652 109.571 30.948 108.438C30.4958 107.448 29.6528 106.707 28.9258 105.922C28.1537 105.131 27.5872 104.163 27.2756 103.102C26.9945 101.977 26.9071 100.811 27.017 99.656C27.223 97.0515 27.8373 94.4957 28.8373 92.082C29.9633 89.3209 31.5533 86.7728 33.5385 84.548C33.6614 84.4103 33.8509 84.6269 33.7288 84.7636Z" fill="white"/>
<path d="M27.4198 97.4818C26.5314 97.2661 25.7486 96.7416 25.2111 96.002C24.6737 95.2624 24.4167 94.3559 24.4859 93.4443C24.5006 93.2599 24.7878 93.274 24.7732 93.4586C24.7071 94.3074 24.9466 95.1518 25.4485 95.8395C25.9503 96.5272 26.6815 97.0128 27.5099 97.2088C27.6899 97.2516 27.5988 97.5243 27.4198 97.4818Z" fill="white"/>
<path d="M28.6335 105.28C30.2381 104.322 31.4226 102.794 31.9509 101.001C32.0031 100.824 32.276 100.914 32.2239 101.092C31.6707 102.956 30.4348 104.543 28.7628 105.537C28.6034 105.631 28.4749 105.374 28.6335 105.28Z" fill="white"/>
<path d="M30.2301 89.5933C30.5565 89.7484 30.9163 89.82 31.2771 89.8017C31.638 89.7833 31.9887 89.6757 32.2976 89.4883C32.4558 89.3918 32.5841 89.6492 32.4269 89.7451C32.0846 89.9505 31.6972 90.0689 31.2985 90.0901C30.8999 90.1112 30.5021 90.0344 30.14 89.8663C30.1045 89.8533 30.0753 89.8273 30.0584 89.7936C30.0414 89.7599 30.0379 89.7209 30.0486 89.6847C30.0607 89.6486 30.0865 89.6188 30.1205 89.6017C30.1545 89.5845 30.1939 89.5815 30.2301 89.5933Z" fill="white"/>
<path d="M52.4861 96.2037C52.3891 96.2668 52.292 96.3299 52.1949 96.3954C50.8947 97.2504 49.6661 98.2096 48.5212 99.2635C48.4314 99.3436 48.3416 99.4261 48.2543 99.5086C45.5231 102.077 43.2925 105.131 41.676 108.513C41.0339 109.86 40.4953 111.254 40.0647 112.682C39.4702 114.655 38.9825 116.841 37.8056 118.455C37.6847 118.625 37.5534 118.787 37.4125 118.94H26.7769C26.7528 118.928 26.7285 118.918 26.7042 118.906L26.2795 118.926C26.2966 118.851 26.3159 118.773 26.333 118.698C26.3427 118.654 26.3548 118.61 26.3645 118.567C26.3717 118.538 26.3791 118.508 26.3839 118.482C26.3863 118.472 26.3888 118.462 26.3912 118.455C26.396 118.428 26.4034 118.404 26.4082 118.38C26.515 117.945 26.625 117.511 26.7382 117.077C26.7382 117.074 26.7382 117.074 26.7406 117.072C27.6118 113.765 28.7667 110.501 30.3804 107.516C30.4289 107.426 30.4774 107.334 30.5308 107.244C31.2656 105.903 32.1089 104.624 33.052 103.42C33.5706 102.763 34.1221 102.132 34.7045 101.53C36.2123 99.9779 37.9548 98.6726 39.8681 97.662C43.6827 95.648 48.0989 94.8764 52.1756 96.1066C52.2798 96.1382 52.3818 96.1697 52.4861 96.2037Z" fill="#EFEFEF"/>
<path d="M52.4621 96.3388C47.166 97.3906 42.336 100.084 38.6581 104.038C37.8512 104.875 37.1813 105.834 36.6731 106.879C36.2109 107.914 36.0341 109.053 36.1612 110.179C36.2586 111.231 36.4801 112.296 36.3201 113.354C36.2301 113.894 36.027 114.409 35.724 114.865C35.421 115.321 35.0251 115.708 34.5621 116.001C33.4274 116.759 32.0878 117.065 30.7675 117.318C29.3015 117.599 27.7743 117.868 26.5508 118.784C26.4026 118.895 26.2391 118.658 26.3871 118.547C28.5158 116.954 31.3685 117.288 33.6972 116.164C34.7838 115.639 35.7189 114.783 35.9881 113.567C36.2234 112.504 35.996 111.406 35.8882 110.341C35.7481 109.245 35.8786 108.13 36.2684 107.096C36.7218 106.028 37.3536 105.045 38.1369 104.189C39.8695 102.233 41.8987 100.562 44.1504 99.237C46.7118 97.7104 49.5154 96.6332 52.44 96.0521C52.621 96.0162 52.6419 96.3031 52.4621 96.3388H52.4621Z" fill="white"/>
<path d="M39.7675 102.695C39.188 101.988 38.8787 101.098 38.8949 100.184C38.9111 99.2696 39.2517 98.391 39.8558 97.7048C39.9785 97.5664 40.1994 97.7506 40.0765 97.8892C39.5127 98.5271 39.1956 99.3456 39.1822 100.197C39.1689 101.048 39.4603 101.876 40.0038 102.531C40.1218 102.674 39.8847 102.837 39.7675 102.695H39.7675Z" fill="white"/>
<path d="M36.0417 109.652C37.8997 109.853 39.7653 109.347 41.2663 108.233C41.415 108.123 41.5785 108.359 41.4301 108.47C39.8658 109.625 37.9234 110.148 35.9903 109.935C35.8061 109.914 35.8584 109.632 36.0417 109.652Z" fill="white"/>
<path d="M46.7609 98.0885C46.9281 98.4088 47.1722 98.6826 47.4714 98.8852C47.7706 99.0879 48.1154 99.213 48.4749 99.2495C48.6593 99.2676 48.6067 99.5504 48.4235 99.5324C48.0265 99.4902 47.6459 99.3515 47.3148 99.1284C46.9838 98.9052 46.7125 98.6044 46.5245 98.2522C46.504 98.2205 46.4964 98.1821 46.5031 98.145C46.5099 98.1078 46.5305 98.0746 46.5608 98.0522C46.5922 98.0306 46.6309 98.0224 46.6683 98.0292C46.7058 98.036 46.739 98.0573 46.7609 98.0885Z" fill="white"/>
<path d="M108.453 142.504C108.765 139.996 110.32 137.524 112.712 136.707C111.769 139.29 111.769 142.122 112.713 144.705C113.081 145.699 113.593 146.767 113.247 147.769C113 148.389 112.523 148.89 111.917 149.168C111.316 149.441 110.682 149.636 110.031 149.748L109.904 149.853C108.88 147.542 108.141 145.013 108.453 142.504Z" fill="#EFEFEF"/>
<path d="M112.736 136.755C111.343 138.316 110.477 140.277 110.261 142.358C110.207 142.805 110.223 143.258 110.31 143.7C110.408 144.128 110.619 144.522 110.921 144.841C111.222 145.123 111.487 145.44 111.711 145.786C111.809 145.974 111.867 146.181 111.879 146.393C111.892 146.605 111.86 146.817 111.785 147.016C111.585 147.5 111.291 147.94 110.918 148.309C110.53 148.738 110.12 149.177 109.955 149.746C109.935 149.815 109.829 149.78 109.849 149.711C110.136 148.721 111.097 148.159 111.555 147.268C111.673 147.067 111.744 146.843 111.762 146.611C111.78 146.379 111.744 146.146 111.658 145.93C111.451 145.565 111.186 145.236 110.875 144.955C110.575 144.648 110.356 144.273 110.235 143.862C110.126 143.426 110.092 142.974 110.135 142.526C110.215 141.517 110.453 140.526 110.84 139.591C111.277 138.521 111.893 137.533 112.662 136.671C112.71 136.618 112.783 136.702 112.736 136.755H112.736Z" fill="white"/>
<path d="M110.291 141.684C109.947 141.6 109.643 141.397 109.435 141.11C109.227 140.824 109.127 140.472 109.154 140.119C109.16 140.047 109.271 140.053 109.265 140.124C109.24 140.453 109.332 140.781 109.527 141.047C109.721 141.314 110.005 141.502 110.326 141.578C110.396 141.594 110.36 141.7 110.291 141.684H110.291Z" fill="white"/>
<path d="M110.761 144.706C111.383 144.335 111.842 143.742 112.047 143.048C112.067 142.979 112.173 143.014 112.153 143.083C111.939 143.805 111.46 144.42 110.812 144.805C110.75 144.842 110.7 144.742 110.761 144.706Z" fill="white"/>
<path d="M111.38 138.626C111.507 138.687 111.646 138.714 111.786 138.707C111.926 138.7 112.062 138.658 112.181 138.586C112.243 138.548 112.292 138.648 112.231 138.685C112.099 138.765 111.949 138.811 111.794 138.819C111.64 138.827 111.485 138.797 111.345 138.732C111.331 138.727 111.32 138.717 111.314 138.704C111.307 138.691 111.306 138.676 111.31 138.662C111.314 138.648 111.324 138.636 111.338 138.63C111.351 138.623 111.366 138.622 111.38 138.626L111.38 138.626Z" fill="white"/>
<path d="M120.006 141.188C119.968 141.213 119.93 141.237 119.893 141.263C119.389 141.594 118.913 141.966 118.469 142.374C118.434 142.405 118.399 142.437 118.365 142.469C117.307 143.465 116.443 144.648 115.816 145.959C115.567 146.481 115.358 147.021 115.192 147.575C114.961 148.339 114.772 149.186 114.316 149.812C114.269 149.878 114.218 149.94 114.164 150H110.042C110.033 149.995 110.023 149.991 110.014 149.987L109.849 149.994C109.856 149.965 109.863 149.935 109.87 149.906C109.874 149.889 109.878 149.872 109.882 149.855C109.885 149.844 109.888 149.833 109.89 149.822C109.89 149.818 109.891 149.815 109.892 149.812C109.894 149.801 109.897 149.792 109.899 149.783C109.94 149.614 109.983 149.446 110.027 149.278L110.028 149.276C110.35 147.99 110.823 146.747 111.438 145.572C111.457 145.538 111.476 145.502 111.497 145.467C111.781 144.947 112.108 144.452 112.474 143.985C112.675 143.73 112.889 143.486 113.114 143.252C113.699 142.651 114.374 142.145 115.115 141.753C116.594 140.973 118.305 140.674 119.885 141.151C119.926 141.163 119.965 141.175 120.006 141.188Z" fill="#EFEFEF"/>
<path d="M119.996 141.241C117.944 141.648 116.072 142.692 114.646 144.224C114.334 144.549 114.074 144.92 113.877 145.326C113.698 145.727 113.629 146.168 113.679 146.605C113.749 147.011 113.77 147.424 113.74 147.835C113.705 148.044 113.627 148.244 113.509 148.421C113.392 148.597 113.238 148.747 113.059 148.861C112.608 149.128 112.108 149.301 111.588 149.371C111.02 149.48 110.428 149.584 109.954 149.939C109.897 149.982 109.833 149.891 109.891 149.848C110.716 149.23 111.821 149.36 112.724 148.924C112.939 148.835 113.13 148.698 113.284 148.524C113.438 148.349 113.55 148.142 113.612 147.918C113.665 147.502 113.652 147.079 113.573 146.667C113.519 146.242 113.569 145.811 113.72 145.41C113.896 144.996 114.141 144.615 114.444 144.283C115.116 143.525 115.902 142.878 116.775 142.364C117.768 141.772 118.854 141.355 119.988 141.13C120.058 141.116 120.066 141.227 119.996 141.241H119.996Z" fill="white"/>
<path d="M115.076 143.704C114.852 143.43 114.732 143.085 114.738 142.731C114.745 142.377 114.877 142.036 115.111 141.77C115.158 141.716 115.244 141.788 115.196 141.842C114.978 142.089 114.855 142.406 114.85 142.736C114.844 143.066 114.957 143.387 115.168 143.641C115.214 143.696 115.122 143.759 115.076 143.704Z" fill="white"/>
<path d="M113.633 146.4C114.353 146.478 115.076 146.282 115.657 145.85C115.715 145.808 115.778 145.899 115.721 145.942C115.115 146.39 114.362 146.593 113.613 146.51C113.541 146.502 113.562 146.392 113.633 146.4H113.633Z" fill="white"/>
<path d="M117.787 141.919C117.851 142.043 117.946 142.149 118.062 142.228C118.178 142.306 118.312 142.355 118.451 142.369C118.522 142.376 118.502 142.485 118.431 142.478C118.277 142.462 118.13 142.408 118.001 142.322C117.873 142.235 117.768 142.119 117.695 141.982C117.687 141.97 117.684 141.955 117.687 141.941C117.689 141.926 117.697 141.913 117.709 141.905C117.721 141.896 117.736 141.893 117.751 141.896C117.765 141.898 117.778 141.907 117.787 141.919Z" fill="white"/>
<path d="M179.27 89.2129C178.032 79.2628 171.866 69.459 162.376 66.2209C166.119 76.4624 166.118 87.6975 162.374 97.9385C160.916 101.883 158.883 106.118 160.255 110.093C161.108 112.567 163.196 114.459 165.53 115.642C167.863 116.826 170.453 117.39 173.011 117.942L173.514 118.359C177.574 109.191 180.507 99.1631 179.27 89.2129Z" fill="#EFEFEF"/>
<path d="M162.282 66.409C167.808 72.601 171.243 80.3767 172.098 88.6319C172.271 90.4015 172.292 92.2117 171.905 93.9561C171.515 95.6534 170.677 97.2153 169.479 98.4795C168.386 99.6807 167.129 100.783 166.346 102.229C165.522 103.753 165.49 105.485 166.055 107.104C166.745 109.085 168.106 110.699 169.492 112.232C171.031 113.934 172.657 115.677 173.311 117.933C173.39 118.206 173.81 118.067 173.731 117.794C172.592 113.869 168.782 111.64 166.965 108.104C166.117 106.455 165.761 104.539 166.556 102.798C167.251 101.275 168.547 100.138 169.664 98.9311C170.838 97.6641 171.737 96.274 172.201 94.5965C172.675 92.8805 172.725 91.0657 172.598 89.2994C172.282 85.2962 171.338 81.3676 169.8 77.6577C168.07 73.4139 165.626 69.4974 162.574 66.0776C162.386 65.866 162.094 66.1989 162.282 66.4091L162.282 66.409Z" fill="white"/>
<path d="M171.979 85.9576C173.345 85.6261 174.548 84.8199 175.374 83.6832C176.2 82.5464 176.595 81.153 176.489 79.7518C176.466 79.4684 176.025 79.49 176.047 79.7739C176.149 81.0784 175.781 82.3764 175.009 83.4334C174.238 84.4904 173.114 85.2368 171.841 85.538C171.564 85.6037 171.704 86.023 171.979 85.9576H171.979Z" fill="white"/>
<path d="M170.114 97.9435C167.647 96.4709 165.827 94.1227 165.015 91.3673C164.934 91.0943 164.515 91.2331 164.595 91.5059C165.445 94.3716 167.345 96.8114 169.915 98.3382C170.16 98.4836 170.357 98.0881 170.114 97.9435Z" fill="white"/>
<path d="M167.66 73.8325C167.158 74.0709 166.605 74.1809 166.05 74.1528C165.496 74.1246 164.957 73.9591 164.482 73.6712C164.239 73.5228 164.042 73.9184 164.283 74.0659C164.809 74.3816 165.405 74.5636 166.017 74.5961C166.63 74.6285 167.242 74.5105 167.798 74.2521C167.853 74.2322 167.898 74.1922 167.924 74.1404C167.95 74.0885 167.955 74.0287 167.939 73.973C167.92 73.9176 167.88 73.8717 167.828 73.8454C167.776 73.8191 167.715 73.8144 167.66 73.8325Z" fill="white"/>
<path d="M133.451 83.993C133.6 84.09 133.749 84.187 133.899 84.2877C135.897 85.6018 137.786 87.0762 139.545 88.6962C139.683 88.8192 139.822 88.9461 139.956 89.0729C144.154 93.021 147.582 97.7141 150.067 102.914C151.054 104.984 151.882 107.126 152.543 109.321C153.457 112.354 154.207 115.714 156.016 118.194C156.202 118.455 156.403 118.704 156.62 118.94H172.967C173.005 118.922 173.042 118.907 173.079 118.888L173.732 118.918C173.706 118.802 173.676 118.683 173.65 118.567C173.635 118.5 173.616 118.433 173.601 118.366C173.59 118.321 173.579 118.276 173.571 118.235C173.568 118.22 173.564 118.206 173.56 118.194C173.553 118.153 173.542 118.116 173.534 118.079C173.37 117.411 173.201 116.744 173.027 116.076C173.027 116.072 173.027 116.072 173.023 116.068C171.684 110.985 169.909 105.968 167.429 101.381C167.354 101.243 167.28 101.101 167.197 100.963C166.068 98.9015 164.772 96.9356 163.322 95.0851C162.525 94.0744 161.677 93.1047 160.782 92.1797C158.465 89.7941 155.787 87.7879 152.846 86.2346C146.982 83.1389 140.195 81.9529 133.929 83.8439C133.768 83.8923 133.611 83.9408 133.451 83.993Z" fill="#EFEFEF"/>
<path d="M133.488 84.2006C141.628 85.8174 149.052 89.9579 154.705 96.0342C155.908 97.3434 157.015 98.7761 157.756 100.402C158.467 101.992 158.738 103.743 158.543 105.474C158.393 107.091 158.053 108.728 158.299 110.354C158.558 112.067 159.576 113.469 161.001 114.422C162.745 115.588 164.804 116.057 166.834 116.446C169.087 116.879 171.434 117.292 173.315 118.699C173.543 118.87 173.794 118.506 173.566 118.336C170.294 115.887 165.91 116.401 162.33 114.672C160.66 113.866 159.223 112.551 158.809 110.682C158.448 109.048 158.797 107.359 158.963 105.723C159.137 104.005 159.018 102.353 158.378 100.735C157.724 99.0793 156.671 97.6003 155.506 96.2661C152.843 93.2604 149.724 90.6922 146.263 88.6554C142.326 86.3089 138.017 84.6532 133.522 83.7599C133.244 83.7047 133.211 84.1458 133.488 84.2006V84.2006Z" fill="white"/>
<path d="M153 93.9705C153.891 92.8837 154.366 91.5156 154.341 90.1106C154.316 88.7056 153.793 87.3552 152.864 86.3005C152.676 86.0878 152.336 86.3709 152.525 86.5839C153.392 87.5645 153.879 88.8224 153.9 90.1308C153.92 91.4392 153.472 92.7118 152.637 93.7189C152.456 93.938 152.82 94.1884 153 93.9706L153 93.9705Z" fill="white"/>
<path d="M158.727 104.664C155.871 104.973 153.004 104.194 150.696 102.483C150.468 102.313 150.216 102.677 150.445 102.846C152.849 104.623 155.835 105.427 158.806 105.099C159.089 105.067 159.008 104.632 158.727 104.664Z" fill="white"/>
<path d="M142.251 86.89C141.994 87.3824 141.619 87.8032 141.159 88.1146C140.699 88.4261 140.169 88.6185 139.617 88.6745C139.333 88.7024 139.414 89.137 139.695 89.1093C140.306 89.0446 140.891 88.8314 141.4 88.4884C141.908 88.1454 142.325 87.683 142.614 87.1416C142.646 87.0929 142.658 87.034 142.647 86.9769C142.637 86.9198 142.605 86.8687 142.558 86.8342C142.51 86.8011 142.451 86.7884 142.393 86.7989C142.336 86.8093 142.285 86.8421 142.251 86.89V86.89Z" fill="white"/>
<path d="M198.327 119.183H0.242653C0.178298 119.183 0.116578 119.158 0.0710714 119.112C0.025565 119.066 0 119.005 0 118.94C0 118.876 0.025565 118.814 0.0710714 118.769C0.116578 118.723 0.178298 118.698 0.242653 118.698H198.248C198.312 118.698 198.374 118.723 198.419 118.769C198.465 118.814 198.491 118.876 198.491 118.94C198.491 119.074 198.461 119.183 198.327 119.183Z" fill="#CACACA"/>
<path d="M69.4781 140.536H25.7212C25.6568 140.536 25.5951 140.511 25.5496 140.465C25.5041 140.42 25.4785 140.358 25.4785 140.294C25.4785 140.229 25.5041 140.168 25.5496 140.122C25.5951 140.077 25.6568 140.051 25.7212 140.051H69.3988C69.4631 140.051 69.5249 140.077 69.5704 140.122C69.6159 140.168 69.6414 140.229 69.6414 140.294C69.6414 140.428 69.6121 140.536 69.4781 140.536Z" fill="#CACACA"/>
<path d="M138.149 150H94.3921C94.3277 150 94.266 149.974 94.2205 149.929C94.175 149.883 94.1494 149.822 94.1494 149.757C94.1494 149.693 94.175 149.631 94.2205 149.586C94.266 149.54 94.3277 149.515 94.3921 149.515H138.07C138.134 149.515 138.196 149.54 138.241 149.586C138.287 149.631 138.312 149.693 138.312 149.757C138.312 149.891 138.283 150 138.149 150Z" fill="#CACACA"/>
<path d="M179.4 140.294H135.643C135.579 140.294 135.517 140.268 135.472 140.223C135.426 140.177 135.401 140.116 135.401 140.051C135.401 139.987 135.426 139.925 135.472 139.88C135.517 139.834 135.579 139.809 135.643 139.809H179.321C179.385 139.809 179.447 139.834 179.492 139.88C179.538 139.925 179.564 139.987 179.564 140.051C179.564 140.185 179.534 140.294 179.4 140.294Z" fill="#CACACA"/>
<path d="M80.8664 131.073C78.1482 131.073 75.6597 130.813 73.6825 130.197C71.3324 129.465 69.8568 128.282 69.2962 126.677C69.0328 125.996 68.9541 125.257 69.0682 124.535C69.1823 123.814 69.485 123.135 69.9458 122.568C73.4225 118.038 85.4869 116.761 87.1057 116.61L90.3898 110.391C90.5999 108.907 89.6057 107.784 91.3234 107.756L111.642 107.48C113.329 107.445 112.85 108.489 113.139 109.936L116.235 115.462L102.911 121.085L104.926 125.994L104.794 126.07C100.895 128.332 89.6811 131.073 80.8664 131.073Z" fill="#2F2E41"/>
<path d="M114.39 115.698C114.39 115.698 132.997 113.569 131.783 122.086C130.57 130.603 116.413 136.636 94.9744 122.086L97.4013 117.827C97.4013 117.827 105.39 117.43 110.244 115.301L114.39 115.698Z" fill="#2F2E41"/>
<path d="M88.0476 77.1112C88.0476 77.1112 84.5112 76.4682 83.5467 81.9336C82.5822 87.3991 81.0372 100.345 81.0372 100.345L76.2402 116.975C75.6744 117.276 75.2057 117.731 74.8889 118.287C74.5722 118.844 74.4203 119.48 74.4512 120.119C74.482 120.759 74.6943 121.377 75.0631 121.901C75.432 122.424 75.9423 122.832 76.5343 123.077C77.1264 123.321 77.7758 123.392 78.4067 123.282C79.0376 123.171 79.624 122.883 80.0973 122.451C80.5707 122.02 80.9115 121.462 81.0799 120.844C81.2483 120.226 81.2374 119.573 81.0484 118.961L87.4671 101.311L88.6906 86.1144V78.1516C88.6906 77.9356 88.6304 77.7238 88.5169 77.5401C88.4033 77.3563 88.2408 77.2078 88.0476 77.1112Z" fill="#FEB8B8"/>
<path d="M112.94 77.1112C112.94 77.1112 116.477 76.4682 117.441 81.9336C118.406 87.3991 119.95 100.345 119.95 100.345L124.748 116.975C125.313 117.276 125.782 117.731 126.099 118.287C126.416 118.844 126.567 119.48 126.537 120.119C126.506 120.759 126.293 121.377 125.925 121.901C125.556 122.424 125.045 122.832 124.453 123.077C123.861 123.321 123.212 123.392 122.581 123.282C121.95 123.171 121.364 122.883 120.89 122.451C120.417 122.02 120.076 121.462 119.908 120.844C119.739 120.226 119.75 119.573 119.939 118.961L113.521 101.311L112.297 86.1144V78.1516C112.297 77.9356 112.357 77.7238 112.471 77.5401C112.584 77.3563 112.747 77.2078 112.94 77.1112Z" fill="#FEB8B8"/>
<path d="M112.671 72.5935L105.981 70.0916L93.0156 69.9243L87.4346 72.5935L89.0021 81.6023C89.0021 81.6023 85.8372 86.9612 89.3218 92.3208L90.1038 111.418C90.1038 111.418 102.604 118.667 113.156 109.962L110.771 92.2063C110.771 92.2063 114.76 83.9682 111.668 80.9076L112.671 72.5935Z" fill="#A0E3DD"/>
<path d="M109.946 75.393L112.671 72.5935C112.671 72.5935 118.617 75.7212 118.494 86.1821L110.993 83.8705L109.946 75.393Z" fill="#A0E3DD"/>
<path d="M90.4614 75.3931L87.5667 72.4984C87.5667 72.4984 82.459 76.4492 82.5815 86.9101L89.4139 83.8705L90.4614 75.3931Z" fill="#A0E3DD"/>
<path d="M109.331 123.852C109.331 123.852 107.247 119.468 103.768 121.57C100.288 123.671 93.8854 127.162 93.8854 127.162C93.8854 127.162 92.388 129.665 95.6579 129.007C98.9278 128.349 109.432 127.835 109.432 127.835L109.331 123.852Z" fill="#FEB8B8"/>
<path d="M103.542 45.4851C103.572 45.4568 103.602 45.4314 103.631 45.4024C105.493 43.5405 105.871 40.899 104.474 39.5025C103.155 38.1828 100.724 38.4491 98.8891 40.0537C97.3159 38.556 95.2065 38.1384 93.8411 39.1723C92.2667 40.3646 92.2789 43.0328 93.8687 45.1321C93.9775 45.2758 94.0918 45.4117 94.2091 45.5425C92.0936 46.3169 90.267 47.7224 88.9766 49.5689C87.6862 51.4154 86.9941 53.6138 86.9941 55.8665V66.3298C86.9941 66.6366 87.0546 66.9404 87.172 67.2239C87.2894 67.5073 87.4615 67.7649 87.6785 67.9818C87.8954 68.1988 88.153 68.3709 88.4365 68.4883C88.7199 68.6057 89.0237 68.6661 89.3306 68.6661H108.669C109.268 68.6661 109.842 68.4282 110.266 68.0048C110.689 67.5813 110.927 67.007 110.927 66.4082V55.8665C110.927 53.5835 110.215 51.3572 108.892 49.4968C107.569 47.6364 105.699 46.2343 103.542 45.4851Z" fill="#2F2E41"/>
<path d="M105.755 64.9345C109.339 61.3508 109.339 55.5405 105.755 51.9568C102.171 48.3731 96.3609 48.3731 92.7772 51.9568C89.1935 55.5405 89.1935 61.3508 92.7772 64.9345C96.3609 68.5182 102.171 68.5182 105.755 64.9345Z" fill="#FFB6B6"/>
<path d="M89.6235 52.6736C91.7205 54.1189 94.2095 54.8881 96.7563 54.8779C95.8478 55.5078 94.8136 55.9333 93.7248 56.1251C97.111 56.8514 100.611 56.8711 104.005 56.1828C104.759 56.0619 105.487 55.8118 106.157 55.4437C106.49 55.2574 106.781 55.0029 107.01 54.6968C107.239 54.3908 107.401 54.04 107.485 53.6672C107.711 52.3788 106.707 51.2082 105.663 50.4193C104.066 49.2298 102.224 48.4103 100.271 48.02C98.3179 47.6298 96.3025 47.6785 94.3707 48.1627C93.1092 48.4888 91.8455 49.0397 91.0261 50.0527C90.2068 51.0658 89.9641 52.6276 90.7447 53.6708L89.6235 52.6736Z" fill="#2F2E41"/>
<path d="M40.54 34.3614L40.8292 33.9715L48.5332 39.686C48.1146 38.41 46.6327 34.3649 44.2034 32.7509C41.3012 30.8227 39.2593 31.4225 38.1469 33.0969C37.0345 34.7712 37.2727 36.8859 40.1749 38.8142C42.6349 40.4487 47.0174 40.2214 48.296 40.1143L40.54 34.3614Z" fill="#F2F2F2"/>
<path d="M156.455 3.07493L156.813 3.40311L150.328 10.471C151.64 10.1873 155.818 9.13414 157.676 6.8859C159.895 4.20001 159.511 2.10684 157.961 0.826297C156.412 -0.454249 154.284 -0.437289 152.064 2.24861C150.183 4.52534 149.953 8.90766 149.927 10.1905L156.455 3.07493Z" fill="#F2F2F2"/>
<path d="M51.8714 78.5401L52.2291 78.8683L45.7443 85.9362C47.057 85.6525 51.2342 84.5994 53.0922 82.3511C55.3117 79.6652 54.9276 77.5721 53.378 76.2915C51.8284 75.011 49.7004 75.0279 47.4807 77.7138C45.5992 79.9905 45.3694 84.3729 45.343 85.6557L51.8714 78.5401Z" fill="#F2F2F2"/>
<path d="M106.705 11.1743L107.126 11.4174L102.322 19.7197C103.542 19.1591 107.393 17.228 108.721 14.6313C110.308 11.5292 109.48 9.56856 107.69 8.65317C105.901 7.73778 103.827 8.21427 102.24 11.3164C100.895 13.946 101.618 18.2744 101.869 19.5326L106.705 11.1743Z" fill="#F2F2F2"/>
<path d="M151.596 63.1021L152.016 63.3452L147.212 71.6476C148.433 71.0869 152.284 69.1558 153.612 66.5592C155.198 63.4571 154.371 61.4964 152.581 60.581C150.792 59.6656 148.718 60.1421 147.131 63.2443C145.786 65.8738 146.509 70.2022 146.76 71.4604L151.596 63.1021Z" fill="#F2F2F2"/>
</g>
<defs>
<clipPath id="clip0">
<rect width="198.491" height="150" fill="white"/>
</clipPath>
</defs>
</svg>
