<svg width="27" height="35" viewBox="0 0 27 35" fill="none" xmlns="http://www.w3.org/2000/svg">
<path d="M17.2558 6.51163C19.0465 6.51163 20.5116 5.04651 20.5116 3.25581C20.5116 1.46512 19.0465 0 17.2558 0C15.4651 0 14 1.46512 14 3.25581C14 5.04651 15.4651 6.51163 17.2558 6.51163ZM11.3953 29.1395L13.0233 21.9767L16.4419 25.2326V35H19.6977V22.7907L16.2791 19.5349L17.2558 14.6512C19.3721 17.093 22.6279 18.7209 26.2093 18.7209V15.4651C23.1163 15.4651 20.5116 13.8372 19.2093 11.5581L17.5814 8.95349C16.9302 7.97674 15.9535 7.32558 14.8139 7.32558C14.3256 7.32558 14 7.48837 13.5116 7.48837L5.04651 11.0698V18.7209H8.30232V13.186L11.2326 12.0465L8.6279 25.2326L0.651162 23.6047L0 26.8605L11.3953 29.1395Z" fill="white"/>
</svg>
