<svg width="139" height="92" viewBox="0 0 139 92" fill="none" xmlns="http://www.w3.org/2000/svg">
<g clip-path="url(#clip0_423:2)">
<path opacity="0.1" d="M81.0788 18.3154C72.9298 18.0269 65.1685 15.4061 57.7624 12.5444C50.3562 9.68275 43.0105 6.49866 35.0566 4.97937C29.9408 4.00206 24.0896 3.86406 19.9685 6.59651C16.001 9.23111 14.7192 13.7664 14.0305 17.9792C13.5117 21.1483 13.207 24.4829 14.6273 27.45C15.6145 29.51 17.3646 31.2413 18.5759 33.2147C22.7902 40.0797 19.8111 48.5456 15.2455 55.2487C13.105 58.3939 10.6183 61.3961 8.96502 64.7408C7.31179 68.0855 6.5475 71.9232 7.99424 75.3382C9.42712 78.7255 12.8431 81.2647 16.5437 83.0525C24.0594 86.6832 32.9123 87.7233 41.5512 88.3117C60.6684 89.6152 79.8864 89.0506 99.0541 88.486C106.148 88.2765 113.272 88.0645 120.25 86.9718C124.126 86.3646 128.126 85.4011 130.94 83.0763C134.511 80.1243 135.396 75.1249 133.003 71.4239C128.989 65.215 117.893 63.6732 115.084 57.0089C113.54 53.3418 115.126 49.2556 117.371 45.8545C122.185 38.5579 130.255 32.1559 130.68 23.8142C130.972 18.0859 127.092 12.3487 121.094 9.63759C114.807 6.79599 106.088 7.15354 101.451 11.8569C96.6693 16.6945 88.2747 18.5576 81.0788 18.3154Z" fill="#A0E3DD"/>
<path d="M21.9025 91.832C26.9935 91.832 31.1205 91.0411 31.1205 90.0656C31.1205 89.09 26.9935 88.2991 21.9025 88.2991C16.8115 88.2991 12.6844 89.09 12.6844 90.0656C12.6844 91.0411 16.8115 91.832 21.9025 91.832Z" fill="#A0E3DD"/>
<path d="M21.7476 90.7154C22.3401 90.7154 22.8204 90.0886 22.8204 89.3153C22.8204 88.5421 22.3401 87.9152 21.7476 87.9152C21.1552 87.9152 20.6749 88.5421 20.6749 89.3153C20.6749 90.0886 21.1552 90.7154 21.7476 90.7154Z" fill="#3F3D56"/>
<path d="M21.7476 89.0042C22.3401 89.0042 22.8204 88.3773 22.8204 87.6041C22.8204 86.8308 22.3401 86.204 21.7476 86.204C21.1552 86.204 20.6749 86.8308 20.6749 87.6041C20.6749 88.3773 21.1552 89.0042 21.7476 89.0042Z" fill="#3F3D56"/>
<path d="M21.7476 87.2929C22.3401 87.2929 22.8204 86.6661 22.8204 85.8928C22.8204 85.1196 22.3401 84.4927 21.7476 84.4927C21.1552 84.4927 20.6749 85.1196 20.6749 85.8928C20.6749 86.6661 21.1552 87.2929 21.7476 87.2929Z" fill="#3F3D56"/>
<path d="M21.7476 85.583C22.3401 85.583 22.8204 84.9561 22.8204 84.1829C22.8204 83.4096 22.3401 82.7828 21.7476 82.7828C21.1552 82.7828 20.6749 83.4096 20.6749 84.1829C20.6749 84.9561 21.1552 85.583 21.7476 85.583Z" fill="#3F3D56"/>
<path d="M21.7476 83.8717C22.3401 83.8717 22.8204 83.2449 22.8204 82.4716C22.8204 81.6984 22.3401 81.0715 21.7476 81.0715C21.1552 81.0715 20.6749 81.6984 20.6749 82.4716C20.6749 83.2449 21.1552 83.8717 21.7476 83.8717Z" fill="#3F3D56"/>
<path d="M21.7476 82.1605C22.3401 82.1605 22.8204 81.5336 22.8204 80.7604C22.8204 79.9871 22.3401 79.3603 21.7476 79.3603C21.1552 79.3603 20.6749 79.9871 20.6749 80.7604C20.6749 81.5336 21.1552 82.1605 21.7476 82.1605Z" fill="#3F3D56"/>
<path d="M21.7476 80.4493C22.3401 80.4493 22.8204 79.8225 22.8204 79.0492C22.8204 78.276 22.3401 77.6491 21.7476 77.6491C21.1552 77.6491 20.6749 78.276 20.6749 79.0492C20.6749 79.8225 21.1552 80.4493 21.7476 80.4493Z" fill="#3F3D56"/>
<path d="M25.7655 67.3403C25.9125 67.1546 26.0463 66.9588 26.1659 66.7544L23.3455 66.2927L26.3951 66.3153C26.6878 65.6811 26.8476 64.994 26.8645 64.2961C26.8813 63.5983 26.755 62.9043 26.4933 62.2568L22.4024 64.372L26.1797 61.6119C25.8259 61.0039 25.3502 60.4749 24.7824 60.0579C24.2145 59.6409 23.5666 59.3448 22.879 59.188C22.1913 59.0312 21.4787 59.0171 20.7853 59.1466C20.0919 59.2761 19.4328 59.5463 18.8487 59.9406C18.2647 60.3348 17.7684 60.8446 17.3906 61.4382C17.0128 62.0317 16.7617 62.6964 16.6529 63.3909C16.544 64.0853 16.5797 64.7947 16.7579 65.4748C16.936 66.1549 17.2527 66.7912 17.6882 67.3441C17.4597 67.6339 17.263 67.9472 17.1015 68.2787L20.763 70.1731L16.8597 68.8684C16.5851 69.6755 16.5171 70.5381 16.6618 71.3781C16.8064 72.218 17.1592 73.0087 17.6882 73.6784C17.0917 74.4339 16.7205 75.3415 16.6173 76.2973C16.514 77.2531 16.6828 78.2186 17.1043 79.0834C17.5258 79.9481 18.183 80.6772 19.0008 81.1873C19.8186 81.6974 20.7639 81.968 21.7287 81.968C22.6936 81.968 23.6389 81.6974 24.4567 81.1873C25.2745 80.6772 25.9317 79.9481 26.3532 79.0834C26.7747 78.2186 26.9435 77.2531 26.8402 76.2973C26.7369 75.3415 26.3658 74.4339 25.7693 73.6784C26.4821 72.7755 26.8697 71.66 26.8697 70.5112C26.8697 69.3624 26.4821 68.247 25.7693 67.3441L25.7655 67.3403Z" fill="#A0E3DD"/>
<path opacity="0.1" d="M16.589 70.5056C16.5875 71.6544 16.9752 72.7702 17.6895 73.6721C17.0929 74.4277 16.7218 75.3352 16.6185 76.291C16.5153 77.2468 16.684 78.2123 17.1055 79.0771C17.527 79.9418 18.1842 80.6709 19.002 81.1811C19.8198 81.6912 20.7652 81.9617 21.73 81.9617C22.6948 81.9617 23.6402 81.6912 24.458 81.1811C25.2758 80.6709 25.933 79.9418 26.3545 79.0771C26.776 78.2123 26.9447 77.2468 26.8415 76.291C26.7382 75.3352 26.3671 74.4277 25.7705 73.6721C26.4555 72.8027 16.589 69.9322 16.589 70.5056Z" fill="black"/>
<path d="M66.5624 68.7491C66.6405 69.7528 67.0283 70.7916 67.8442 71.3837C68.6601 71.9759 69.9583 71.9646 70.5815 71.1692C70.7908 70.8706 70.9448 70.5371 71.0361 70.1844C71.5611 68.5308 71.9338 66.7218 71.3584 65.0845C70.0602 65.0005 68.5556 64.392 67.581 65.4609C66.7941 66.3316 66.4717 67.5887 66.5624 68.7491Z" fill="#3F3D56"/>
<path d="M72.5885 58.6336C72.416 60.0927 72.1227 61.5454 72.1529 63.0145C72.1642 63.5816 72.2246 64.1437 72.2259 64.7132C72.2281 66.1922 71.8371 67.6453 71.0927 68.9248C71.0143 69.0753 70.9094 69.2104 70.7829 69.3238C70.4845 69.5647 70.035 69.5446 69.7001 69.3602C69.3729 69.1573 69.107 68.8699 68.9308 68.5284C67.9927 66.9276 67.9663 64.9817 67.5949 63.1664C67.3103 61.7775 66.8117 60.4314 66.6316 59.0263C66.5145 58.1217 66.5321 57.1996 66.3458 56.3064C66.2891 56.0366 66.1305 55.6314 66.026 55.2337C65.9303 54.8787 65.8774 54.5299 65.9756 54.2903C66.1758 53.7997 66.8318 53.9904 67.2587 54.0205C68.7618 54.1316 70.2713 54.1278 71.7739 54.0092C71.9225 53.998 72.0912 53.9917 72.1957 54.0971C72.2413 54.1503 72.2755 54.2122 72.2964 54.279C72.4161 54.6052 72.5075 54.9409 72.5696 55.2826C72.7774 56.3754 72.7195 57.5208 72.5885 58.6336Z" fill="#FABDBD"/>
<g opacity="0.1">
<path opacity="0.1" d="M72.0094 54.0092C71.9319 54.0011 71.8538 54.0011 71.7764 54.0092C71.0562 54.0669 70.3347 54.0958 69.6145 54.0996C70.4128 54.1012 71.2111 54.0711 72.0094 54.0092Z" fill="black"/>
<path opacity="0.1" d="M69.9545 69.3602C69.6273 69.1573 69.3614 68.8699 69.1852 68.5284C68.2471 66.9275 68.2207 64.9817 67.8492 63.1663C67.5647 61.7775 67.0661 60.4314 66.886 59.0263C66.7689 58.1217 66.7865 57.1996 66.6002 56.3064C66.5435 56.0366 66.3849 55.6314 66.2804 55.2337C66.1847 54.8787 66.1318 54.5299 66.23 54.2903C66.2717 54.192 66.3419 54.1085 66.4317 54.0503C66.5215 53.9922 66.6266 53.9622 66.7336 53.9641C66.4151 53.9427 66.1041 53.9804 65.9782 54.2903C65.88 54.5299 65.9328 54.8787 66.0285 55.2337C66.1331 55.6314 66.2917 56.0366 66.3484 56.3064C66.5347 57.1996 66.5171 58.1217 66.6342 59.0263C66.8142 60.4326 67.3128 61.7788 67.5974 63.1663C67.9688 64.9817 67.9953 66.9301 68.9333 68.5284C69.1096 68.8699 69.3754 69.1573 69.7027 69.3602C69.9037 69.471 70.134 69.5174 70.3624 69.4931C70.2193 69.4745 70.081 69.4294 69.9545 69.3602Z" fill="black"/>
</g>
<path d="M77.3493 66.3278C76.5938 67.8333 76.7197 69.9661 76.7197 69.9661C76.8456 74.9844 74.831 85.5228 74.831 85.5228H73.0683C73.0683 85.5228 72.8164 73.8553 73.0683 72.8516C73.3201 71.8479 72.9424 68.3352 72.5646 63.4423C72.2838 59.8041 73.0481 56.5071 73.4586 55.0606C73.5996 54.5587 73.6978 54.284 73.6978 54.284C73.6978 54.284 76.5938 50.0184 78.2307 52.0258C78.6084 52.4925 78.8086 53.4346 78.8779 54.624C79.102 58.5483 77.9285 65.1724 77.3493 66.3278Z" fill="#FABDBD"/>
<path opacity="0.1" d="M78.8779 54.624C78.8086 53.4346 78.6109 52.4912 78.2307 52.0257C77.8655 51.5791 77.4374 51.4436 76.9942 51.5026C77.3377 51.5594 77.6457 51.747 77.853 52.0257C78.2307 52.4924 78.4309 53.4346 78.5001 54.624C78.7243 58.5483 77.5508 65.1724 76.9716 66.3278C76.2161 67.8333 76.342 69.9661 76.342 69.9661C76.4679 74.9844 74.4533 85.5228 74.4533 85.5228H74.831C74.831 85.5228 76.8457 74.9844 76.7197 69.9661C76.7197 69.9661 76.5938 67.8333 77.3493 66.3278C77.9285 65.1724 79.102 58.5483 78.8779 54.624Z" fill="black"/>
<path d="M72.1517 85.0649C72.011 85.1749 71.8893 85.3071 71.7915 85.4563C71.5662 85.8804 71.886 86.3872 72.2285 86.7247C72.5709 87.0622 72.9839 87.4235 72.9839 87.904C72.9839 88.2904 72.6906 88.6216 72.3619 88.8273C72.1857 88.9377 71.964 89.0783 72.0006 89.2865C72.0134 89.3392 72.036 89.389 72.0673 89.4333C72.3493 89.8636 72.8492 90.1158 73.3554 90.2111C73.8616 90.3065 74.3841 90.2651 74.8991 90.2237C74.9762 90.2264 75.0516 90.2005 75.1106 90.1509C75.1479 90.1009 75.1678 90.0401 75.1673 89.9778C75.1924 89.7118 75.1761 89.4308 75.2932 89.1912C75.4569 88.8637 75.8333 88.6969 76.0486 88.4033C76.3508 88.0018 76.3093 87.4436 76.1947 86.9555C75.9429 85.8929 75.3826 84.681 74.5415 83.9446C73.5669 83.099 72.8026 84.4539 72.1517 85.0649Z" fill="#3F3D56"/>
<path d="M75.9668 21.8283C76.6694 20.782 76.4868 19.3191 75.7691 18.2778C75.0514 17.2365 73.898 16.5817 72.7082 16.1589C71.104 15.5893 69.335 15.3948 67.6868 15.8226C66.3748 16.1626 65.1962 16.874 63.9598 17.4235C61.7723 18.396 59.3938 18.8675 56.9993 18.8035C54.3413 18.7295 51.429 18.0508 49.1991 19.4985C45.117 22.1444 46.9326 29.3456 43.0709 32.2951C42.0296 33.0905 40.7189 33.4381 39.5605 34.0515C38.4021 34.665 37.3041 35.7327 37.3318 37.0399C37.3444 37.6672 37.6214 38.2656 37.9614 38.7963C39.4094 41.0834 42.1165 42.4986 44.8274 42.4722C47.5383 42.4459 50.1837 41.0094 51.7463 38.7988C52.1379 38.2456 52.4829 37.6296 53.0507 37.2607C54.1839 36.5205 55.6772 37.0387 57.0295 37.1491C60.0401 37.3937 63.0519 35.1418 63.6513 32.1872C63.9031 30.9264 63.859 29.4197 64.8777 28.628C65.6999 27.9895 66.857 28.1262 67.8996 28.0171C69.8059 27.8201 71.3105 26.637 72.3455 25.0914C72.8202 24.3826 72.8756 23.5357 73.5228 22.9775C74.2204 22.364 75.2994 22.8169 75.9668 21.8283Z" fill="#3F3D56"/>
<g opacity="0.1">
<path opacity="0.1" d="M54.481 19.0456C55.5852 19.0758 56.6895 18.9917 57.7762 18.7947C57.4765 18.8035 57.1743 18.8035 56.8734 18.7947C54.787 18.737 52.5445 18.3079 50.5979 18.8248C51.8822 18.8373 53.2106 19.0105 54.481 19.0456Z" fill="black"/>
<path opacity="0.1" d="M50.5299 37.5104C49.9621 37.8792 49.6171 38.4952 49.2255 39.0485C48.0219 40.7318 46.2628 41.9401 44.2557 42.4622C44.4031 42.4684 44.5504 42.4722 44.6989 42.471C47.4124 42.4446 50.0553 41.0081 51.6178 38.7976C52.0094 38.2443 52.3544 37.6283 52.9223 37.2595L53.0205 37.1992C52.1315 37.0775 51.259 37.0349 50.5299 37.5104Z" fill="black"/>
<path opacity="0.1" d="M75.6419 18.2741C74.9255 17.2378 73.7709 16.5779 72.581 16.1551C70.9769 15.5855 69.2078 15.3911 67.5596 15.8189C67.5219 15.8276 67.4853 15.8389 67.4488 15.849C68.3844 15.901 69.3074 16.0886 70.1887 16.406C71.3786 16.8288 72.5332 17.4887 73.2496 18.525C73.9661 19.5612 74.1499 21.0341 73.4473 22.0754C72.78 23.0678 71.7009 22.6149 70.9945 23.2258C70.3473 23.7841 70.2919 24.631 69.8172 25.3398C68.927 26.6659 67.6881 27.7235 66.1456 28.1249C66.6757 28.0622 67.2348 28.0697 67.7636 28.0145C69.6699 27.8176 71.1746 26.6345 72.2096 25.0889C72.6843 24.38 72.7397 23.5332 73.3869 22.9749C74.0932 22.364 75.1723 22.8168 75.8396 21.8245C76.5435 20.7782 76.3609 19.3103 75.6419 18.2741Z" fill="black"/>
<path opacity="0.1" d="M65.3725 28.2654C64.3362 28.3733 63.1791 28.2378 62.3506 28.8764C61.332 29.668 61.3811 31.1748 61.1242 32.4356C60.6823 34.6399 58.8868 36.4578 56.7551 37.134L56.9049 37.1478C59.9155 37.3924 62.9273 35.1405 63.5266 32.1859C63.7785 30.9251 63.7344 29.4184 64.753 28.6267C64.987 28.4524 65.2524 28.3246 65.5349 28.2504C65.4783 28.2516 65.4266 28.2604 65.3725 28.2654Z" fill="black"/>
</g>
<path d="M95.7955 17.3369C95.7955 17.3369 92.7736 23.3589 91.7663 25.6171C90.759 27.8753 81.5674 31.2626 80.3083 31.3881C79.9705 31.4342 79.656 31.5852 79.4093 31.8197C78.6979 32.447 78.2937 33.5209 78.2937 33.5209C78.2937 33.5209 78.7973 36.9082 78.1678 42.5538C78.1552 42.6629 78.1439 42.7721 78.1338 42.8774C77.5848 48.2495 78.7344 49.5166 78.7344 49.5166C78.7344 49.5166 66.5209 54.1585 66.8986 48.1366C67.017 46.241 66.9993 44.8559 66.8822 43.6979C66.7541 42.5125 66.5121 41.3421 66.1595 40.2027C65.8611 39.1627 65.5048 38.0223 65.1358 36.4691C64.9583 35.6942 64.7243 34.9331 64.4358 34.1921C64.427 34.1695 64.4181 34.1469 64.4106 34.1256C63.781 32.5686 63.1515 32.0656 62.7914 31.9025C62.4513 31.7551 62.1273 31.5735 61.8243 31.3605C60.6609 30.5237 58.1641 28.6481 55.9405 26.4326C52.9186 23.4216 49.8967 16.2705 49.8967 16.2705C49.8967 16.2705 49.0153 12.1305 51.0299 8.74311C53.0445 5.35577 52.1631 15.3923 52.1631 15.3923C52.1631 15.3923 55.8145 20.2852 56.6959 22.5434C57.1492 23.7051 57.8694 24.2998 58.4587 24.6084C59.4323 25.1134 60.3644 25.6939 61.2464 26.3447C61.8425 26.7936 62.469 27.201 63.1212 27.5642C64.5289 28.3169 66.2149 29.1663 67.6201 29.3896C67.8395 29.4257 68.0613 29.4446 68.2837 29.446C68.3891 29.4494 68.494 29.4285 68.59 29.385C68.6861 29.3415 68.7708 29.2765 68.8377 29.1951C69.2154 28.7522 69.2066 27.7988 69.1197 27.0147C69.0733 26.6085 69.0044 26.2051 68.9132 25.8065C68.9132 25.8065 73.0054 23.2346 72.8795 26.3711C72.8599 26.7177 72.8922 27.0652 72.9752 27.4023C73.0421 27.7118 73.1904 27.998 73.4048 28.2316C73.6191 28.4652 73.8919 28.638 74.1952 28.7322C74.6866 28.8758 75.2065 28.8926 75.7062 28.7811C75.862 28.7546 76.0125 28.7033 76.1519 28.6293C76.5297 28.3784 80.307 27.2493 81.4402 27.1238C82.5735 26.9984 88.2395 24.2383 88.2395 24.2383L94.4092 15.7072C94.4092 15.7072 94.2833 10.689 96.8016 8.68164C99.3198 6.67433 95.7955 17.3369 95.7955 17.3369Z" fill="#FABDBD"/>
<g opacity="0.1">
<path opacity="0.1" d="M78.1338 42.1246C78.0238 43.1328 77.9754 44.1467 77.989 45.1607C78.0016 44.4983 78.0456 43.7418 78.1338 42.8774C78.1438 42.772 78.1552 42.6629 78.1678 42.5537C78.388 40.6216 78.4931 38.6782 78.4825 36.7338C78.4631 38.427 78.3581 40.1182 78.1678 41.801C78.1602 41.9101 78.1438 42.0193 78.1338 42.1246Z" fill="black"/>
<path opacity="0.1" d="M69.0441 25.7262C68.9597 25.7751 68.9182 25.8052 68.9182 25.8052C69.0405 26.3419 69.1214 26.8872 69.1599 27.4362C69.1853 26.8637 69.1465 26.2901 69.0441 25.7262Z" fill="black"/>
<path opacity="0.1" d="M52.2222 14.7111C52.2839 13.8329 52.3758 12.2584 52.3582 10.8583C52.3368 12.7301 52.1693 14.6395 52.1693 14.6395L52.2222 14.7111Z" fill="black"/>
<path opacity="0.1" d="M66.9074 47.9897C66.9074 48.0387 66.9074 48.0876 66.8985 48.1365C66.5208 54.1585 78.7343 49.5166 78.7343 49.5166C78.5915 49.3244 78.4837 49.1086 78.4157 48.8792C76.5762 49.5316 67.3317 52.5652 66.9074 47.9897Z" fill="black"/>
<path opacity="0.1" d="M95.7955 16.5841C95.7955 16.5841 92.7736 22.6061 91.7663 24.8643C90.759 27.1225 81.5674 30.5099 80.3082 30.6353C79.9705 30.6815 79.6559 30.8325 79.4092 31.0669C78.6978 31.6942 78.2936 32.7681 78.2936 32.7681C78.2936 32.7681 78.3239 32.9726 78.3604 33.3615C78.5014 33.0391 78.864 32.2989 79.4092 31.8197C79.6559 31.5852 79.9705 31.4342 80.3082 31.3881C81.5674 31.2626 90.759 27.8753 91.7663 25.6171C92.7736 23.3588 95.7955 17.3369 95.7955 17.3369C95.7955 17.3369 97.9247 10.8947 97.6905 8.96765C97.4966 11.4366 95.7955 16.5841 95.7955 16.5841Z" fill="black"/>
<path opacity="0.1" d="M66.8822 42.9452C66.754 41.7597 66.512 40.5893 66.1595 39.4499C65.8611 38.4099 65.5047 37.2695 65.1358 35.7163C64.9582 34.9414 64.7242 34.1804 64.4357 33.4393C64.4269 33.4167 64.4181 33.3941 64.4105 33.3728C63.781 31.8159 63.1514 31.3128 62.7913 31.1497C62.4513 31.0023 62.1273 30.8207 61.8243 30.6077C60.6609 29.7709 58.164 27.8953 55.9404 25.6798C52.9185 22.6688 49.8966 15.5178 49.8966 15.5178C49.7849 14.9141 49.7226 14.3023 49.7103 13.6886C49.6795 14.5534 49.742 15.419 49.8966 16.2705C49.8966 16.2705 52.9185 23.4215 55.9404 26.4325C58.164 28.6481 60.6609 30.5237 61.8243 31.3605C62.1297 31.5739 62.4562 31.7555 62.7989 31.9024C63.1577 32.0655 63.786 32.5686 64.4181 34.1255C64.4257 34.1469 64.4345 34.1694 64.4433 34.192C64.7305 34.9332 64.9632 35.6942 65.1396 36.4691C65.5085 38.0222 65.8648 39.1626 66.1632 40.2027C66.5158 41.342 66.7578 42.5125 66.886 43.6979C66.9389 44.2223 66.9703 44.7931 66.9792 45.4355C66.9944 44.6042 66.962 43.7727 66.8822 42.9452Z" fill="black"/>
</g>
<path d="M79.3526 37.4953C79.1604 37.812 78.992 38.1424 78.8489 38.4839C78.6588 39.0108 78.6576 39.5842 78.6223 40.1425C78.5721 40.9259 78.4524 41.7035 78.2647 42.4659C78.2344 42.6064 78.1923 42.744 78.1388 42.8774C78.1012 42.9673 78.0516 43.0516 77.9915 43.1283C77.9244 43.2101 77.8454 43.2816 77.7573 43.3404C77.6222 43.4301 77.4793 43.5078 77.3304 43.5725C75.5777 44.3879 73.6664 45.1081 71.7538 44.827C70.9452 44.6862 70.1628 44.4239 69.4332 44.0492C68.7407 43.7142 67.9575 43.3165 67.2398 43.595C67.1297 43.6507 67.0109 43.6876 66.8885 43.7042C66.8649 43.7046 66.8412 43.7025 66.818 43.6979C66.5813 43.6528 66.5813 42.8574 66.5272 42.6227C66.3207 41.722 66.2892 40.9918 66.1658 40.209C66.1002 39.776 65.9987 39.3493 65.8624 38.9331C65.3587 37.415 65.2064 35.7966 65.2064 34.2058C65.2064 34.1268 64.6397 34.2058 64.4509 34.1983C64.403 34.1983 64.3766 34.1908 64.3879 34.1745C64.3989 34.1589 64.4115 34.1446 64.4257 34.1318C64.4916 34.0785 64.5686 34.0404 64.6511 34.0202L64.7997 33.9763C65.5778 33.7567 66.4365 33.6651 67.0182 33.1194C67.6226 32.5561 67.7737 31.6566 67.7473 30.8336C67.7397 30.5688 67.61 29.9265 67.6314 29.3933C67.8508 29.4294 68.0727 29.4483 68.295 29.4498C68.4005 29.4531 68.5053 29.4322 68.6014 29.3887C68.6974 29.3452 68.7822 29.2802 68.849 29.1989C69.0591 29.6041 69.2408 30.0233 69.3929 30.4534C69.607 30.9778 69.7707 31.5298 70.0842 32.0041C70.5878 32.7769 71.5171 33.285 72.4413 33.2072C73.3655 33.1294 74.2255 32.4218 74.3904 31.5135C74.5352 30.7169 74.199 29.5702 74.2066 28.7422C74.6979 28.8858 75.2178 28.9026 75.7175 28.7911C75.7387 28.8422 75.7568 28.8946 75.7717 28.9479C76.055 29.9165 76.4327 31.028 77.3833 31.3718C77.9978 31.5926 78.7243 31.427 79.2922 31.7481C79.3358 31.7731 79.3779 31.8008 79.4181 31.8309C79.5492 31.9281 79.6621 32.0474 79.7517 32.1835C79.985 32.5672 80.1235 33.0006 80.1559 33.4481C80.3013 34.8469 80.0214 36.257 79.3526 37.4953Z" fill="#A0E3DD"/>
<path opacity="0.1" d="M72.9751 27.4011C72.347 27.6423 71.6707 27.7329 71.0009 27.6655C70.3312 27.5982 69.6867 27.3748 69.1196 27.0134C69.0732 26.6072 69.0043 26.2039 68.9131 25.8052C68.9131 25.8052 73.0053 23.2334 72.8794 26.3698C72.8599 26.7164 72.8921 27.0639 72.9751 27.4011Z" fill="black"/>
<path d="M71.4302 27.4362C73.7945 27.4362 75.7112 25.5264 75.7112 23.1706C75.7112 20.8148 73.7945 18.9051 71.4302 18.9051C69.0659 18.9051 67.1492 20.8148 67.1492 23.1706C67.1492 25.5264 69.0659 27.4362 71.4302 27.4362Z" fill="#FABDBD"/>
<path d="M67.7484 23.877C67.6225 23.0941 67.4286 22.108 68.0859 21.6601C68.3203 21.5185 68.5913 21.4487 68.8653 21.4594C70.2264 21.4456 71.5271 22.3903 72.8617 22.1143C73.2865 22.0256 73.6765 21.8165 73.9848 21.5123C74.2932 21.208 74.5068 20.8214 74.5999 20.3991C74.693 19.9767 74.6616 19.5366 74.5096 19.1316C74.3577 18.7265 74.0915 18.3739 73.7431 18.116C73.2181 17.7271 72.5545 17.5866 71.9124 17.4548C70.2239 17.1086 68.4611 16.7636 66.794 17.2039C65.1269 17.6443 63.6034 19.1334 63.7369 20.8422C63.7998 21.6601 64.2178 22.4028 64.6548 23.1004C64.9872 23.6298 66.2816 26.1114 66.9099 26.149C67.7963 26.2004 67.8353 24.3888 67.7484 23.877Z" fill="#3F3D56"/>
<path d="M78.3566 47.3839C78.3566 47.3839 69.6686 49.5166 66.7726 47.3839C66.7726 47.3839 65.5135 52.2767 65.8912 54.7858C65.8912 54.7858 72.061 55.1622 72.6905 55.5386C72.6905 55.5386 72.8164 54.5349 73.446 55.0367C73.446 55.0367 75.5865 52.5276 79.4898 54.7858C79.4898 54.7858 80.2453 48.8893 78.3566 47.3839Z" fill="#A0E3DD"/>
<path opacity="0.1" d="M73.7457 18.116C73.6562 18.0513 73.5624 17.9927 73.465 17.9404C73.7248 18.2347 73.9025 18.5918 73.9804 18.976C74.0583 19.3602 74.0336 19.758 73.9089 20.1298C73.7841 20.5015 73.5636 20.8341 73.2693 21.0943C72.9751 21.3545 72.6175 21.5332 72.2323 21.6125C70.8976 21.8885 69.5969 20.9438 68.2358 20.9576C67.9619 20.9469 67.6909 21.0167 67.4564 21.1583C66.7992 21.6062 66.9918 22.5923 67.1177 23.3752C67.2008 23.887 67.1668 25.6986 66.2829 25.6497H66.2678C66.5108 25.9445 66.7375 26.144 66.9125 26.1515C67.7939 26.2004 67.8304 24.3951 67.7473 23.877C67.6214 23.0941 67.4287 22.108 68.086 21.6602C68.3204 21.5185 68.5915 21.4487 68.8654 21.4594C70.2265 21.4456 71.5272 22.3903 72.8618 22.1143C73.2866 22.0256 73.6766 21.8166 73.9849 21.5123C74.2933 21.208 74.5069 20.8214 74.6 20.3991C74.6931 19.9768 74.6617 19.5366 74.5097 19.1316C74.3578 18.7266 74.0916 18.3739 73.7432 18.116H73.7457Z" fill="black"/>
<g opacity="0.1">
<path opacity="0.1" d="M11.2125 12.1568C11.2125 12.1568 1.79804 8.21238 0.564098 15.3258C0.564098 15.3258 -0.0793145 16.4336 0.815923 17.3494C0.815923 17.3494 1.00857 16.8589 1.91892 17.367C2.24389 17.545 2.58874 17.6844 2.94636 17.7822C3.42963 17.9151 3.94313 17.8878 4.40946 17.7045C4.40946 17.7045 7.50565 17.5376 10.1095 13.5016C10.1095 13.5016 11.2251 12.8141 11.2818 12.557L9.41574 12.6824C9.41574 12.6824 9.55802 14.0436 8.78618 14.8603C8.78618 14.8603 9.4724 12.7489 9.14251 12.6887C9.07578 12.6761 8.15662 12.7978 8.15662 12.7978C8.15662 12.7978 8.39459 15.164 7.14932 16.3884C7.14932 16.3884 8.3052 13.9809 7.80155 12.8405L6.42532 13.1052C6.42532 13.1052 6.80306 15.5943 5.44069 17.0433C5.44069 17.0433 6.56005 14.484 6.12817 13.183L4.80861 13.6246C4.80861 13.6246 5.12716 16.061 3.98766 17.2628C3.98766 17.2628 4.98237 14.1754 4.51397 13.7501C4.51397 13.7501 3.32788 14.2293 3.07353 14.5028C3.07353 14.5028 3.2624 16.2592 2.53715 16.8865C2.53715 16.8865 2.98288 14.7537 2.76253 14.6659C2.76253 14.6659 1.38379 15.6997 0.9645 16.5917C0.9645 16.5917 1.4883 15.2292 2.58877 14.4589C2.58877 14.4589 1.66457 14.3033 0.951909 14.6885C0.951909 14.6885 1.42912 13.7839 2.92244 14.213C2.92244 14.213 4.02921 13.4502 4.25081 13.4602C4.25081 13.4602 2.83808 12.833 1.81693 12.9095C1.81693 12.9095 2.91111 12.2822 4.59707 13.331L5.9116 12.8568C5.9116 12.8568 4.08713 11.9247 3.17175 11.9284C3.17175 11.9284 4.38806 11.4605 6.25408 12.7652L7.60009 12.4905C7.60009 12.4905 6.08914 11.5684 5.0705 11.3538C5.0705 11.3538 6.29311 11.1619 7.98915 12.4277L8.91083 12.35C8.91083 12.35 7.79525 11.6963 7.4578 11.537C7.12036 11.3777 7.13547 11.2735 7.13547 11.2735C7.93862 11.4125 8.68716 11.7713 9.29739 12.3098C9.29739 12.3098 11.2037 12.2734 11.2125 12.1568Z" fill="#A0E3DD"/>
</g>
<g opacity="0.1">
<path opacity="0.1" d="M10.865 5.08606C10.865 5.08606 7.52333 -2.60069 2.72733 0.92465C2.72733 0.92465 1.71121 1.21822 1.72003 2.26704C1.72003 2.26704 2.11539 2.08513 2.3647 2.90311C2.45791 3.19359 2.58467 3.4723 2.74244 3.73363C2.9511 4.08514 3.26885 4.35948 3.64775 4.51523C3.64775 4.51523 5.58176 6.17377 9.43972 5.25417C9.43972 5.25417 10.4961 5.47999 10.6774 5.3583L9.49764 4.37221C9.49764 4.37221 8.80512 5.2617 7.87589 5.30561C7.87589 5.30561 9.49134 4.43996 9.32892 4.21664C9.29618 4.17148 8.68173 3.72234 8.68173 3.72234C8.68173 3.72234 7.46919 5.26295 6.03757 5.28679C6.03757 5.28679 8.10127 4.51147 8.45383 3.54921L7.48556 2.92193C7.48556 2.92193 6.28435 4.61434 4.64875 4.70216C4.64875 4.70216 6.77667 3.82396 7.26395 2.80023L6.22769 2.31346C6.22769 2.31346 5.02397 3.9444 3.66286 4.00587C3.66286 4.00587 6.01868 2.73625 5.98216 2.21811C5.98216 2.21811 5.00382 1.8292 4.69408 1.85178C4.69408 1.85178 3.80388 2.99971 3.00937 2.96709C3.00937 2.96709 4.49388 1.95214 4.41204 1.77525C4.41204 1.77525 3.00182 1.60714 2.24256 1.90071C2.24256 1.90071 3.33297 1.38884 4.42715 1.55695C4.42715 1.55695 3.96756 0.938451 3.32667 0.766575C3.32667 0.766575 4.12747 0.499352 4.76963 1.60212C4.76963 1.60212 5.86255 1.7765 5.98972 1.90698C5.98972 1.90698 5.51125 0.728938 4.85651 0.198255C4.85651 0.198255 5.86381 0.44917 6.26673 2.02616L7.3181 2.49161C7.3181 2.49161 6.76786 0.902068 6.2151 0.38644C6.2151 0.38644 7.20603 0.797939 7.56866 2.63212L8.52434 3.23306C8.52434 3.23306 8.15289 1.82794 7.67191 1.12789C7.67191 1.12789 8.50797 1.70625 8.79253 3.42124L9.38432 3.89798C9.38432 3.89798 9.09472 2.87676 8.98518 2.59072C8.87563 2.30468 8.94488 2.25199 8.94488 2.25199C9.34191 2.7908 9.58119 3.42876 9.63614 4.09495C9.63614 4.09495 10.7971 5.1513 10.865 5.08606Z" fill="#A0E3DD"/>
</g>
</g>
<defs>
<clipPath id="clip0_423:2">
<rect width="138.518" height="91.832" fill="white" transform="translate(0.338745)"/>
</clipPath>
</defs>
</svg>
