<svg width="39" height="35" viewBox="0 0 39 35" fill="none" xmlns="http://www.w3.org/2000/svg">
<path d="M38.8885 35C36.7302 35 35.5247 34.2806 34.6497 33.7556C33.9303 33.3278 33.483 33.0556 32.4136 33.0556C31.3247 33.0556 30.8969 33.3083 30.1775 33.7556C29.2831 34.2806 28.097 35 25.9387 35C23.7803 35 22.5748 34.2806 21.6998 33.7556C20.9804 33.3278 20.5332 33.0556 19.4637 33.0556C18.3748 33.0556 17.9471 33.3083 17.2276 33.7556C16.3332 34.2806 15.1276 35 12.9693 35C10.811 35 9.60547 34.2806 8.73048 33.7556C8.01104 33.3083 7.56382 33.0556 6.49439 33.0556C5.42495 33.0556 4.97773 33.3083 4.2583 33.7556C3.36386 34.2806 2.15831 35 0 35V31.1111C1.08888 31.1111 1.51665 30.8584 2.23609 30.4112C3.13053 29.8862 4.33607 29.1667 6.49439 29.1667C8.6527 29.1667 9.85825 29.8862 10.7332 30.4112C11.4527 30.8584 11.8804 31.1111 12.9693 31.1111C14.0582 31.1111 14.486 30.8584 15.2054 30.4112C16.0999 29.8862 17.3054 29.1667 19.4637 29.1667C21.622 29.1667 22.8276 29.8862 23.7026 30.4112C24.422 30.8389 24.8692 31.1111 25.9387 31.1111C27.0081 31.1111 27.4553 30.8584 28.1747 30.4112C29.0497 29.8862 30.2553 29.1667 32.4136 29.1667C34.5719 29.1667 35.7775 29.8862 36.6525 30.4112C37.3719 30.8584 37.7997 31.1111 38.8885 31.1111V35ZM38.8885 26.2501C36.7302 26.2501 35.5247 25.5306 34.6497 25.0056C33.9303 24.5779 33.483 24.3057 32.4136 24.3057C31.3247 24.3057 30.8969 24.5584 30.1775 25.0056C29.3025 25.5306 28.097 26.2501 25.9387 26.2501C23.7803 26.2501 22.5748 25.5306 21.6998 25.0056C20.9804 24.5779 20.5332 24.3057 19.4637 24.3057C18.3748 24.3057 17.9471 24.5584 17.2276 25.0056C16.3526 25.5306 15.1471 26.2501 12.9888 26.2501C10.8305 26.2501 9.62491 25.5306 8.74992 25.0056C8.03048 24.5779 7.58327 24.3057 6.51383 24.3057C5.4444 24.3057 4.99718 24.5584 4.27774 25.0056C3.36386 25.5306 2.15831 26.2501 0 26.2501V22.3612C1.08888 22.3612 1.51665 22.1084 2.23609 21.6612C3.11108 21.1362 4.31663 20.4168 6.47494 20.4168C8.63326 20.4168 9.8388 21.1362 10.7138 21.6612C11.4332 22.089 11.8804 22.3612 12.9499 22.3612C14.0388 22.3612 14.4665 22.1084 15.186 21.6612C16.061 21.1362 17.2665 20.4168 19.4248 20.4168C21.5831 20.4168 22.7887 21.1362 23.6637 21.6612C24.3831 22.089 24.8303 22.3612 25.8998 22.3612C26.9692 22.3612 27.4164 22.1084 28.1359 21.6612C29.0109 21.1362 30.2164 20.4168 32.3747 20.4168C34.533 20.4168 35.7386 21.1362 36.6136 21.6612C37.333 22.089 37.7802 22.3612 38.8497 22.3612V26.2501H38.8885ZM12.9693 17.5002C14.0582 17.5002 14.486 17.2474 15.2054 16.8002C16.0999 16.2752 17.3054 15.5557 19.4637 15.5557C21.622 15.5557 22.8276 16.2752 23.7026 16.8002C24.422 17.2279 24.8692 17.5002 25.9387 17.5002C27.0081 17.5002 27.4553 17.2474 28.1747 16.8002C28.4081 16.6641 28.6803 16.5085 28.972 16.3529L16.4887 3.88916C13.4749 0.875301 10.6943 -0.0191354 5.83328 0.000308845V4.86138C9.37214 4.84193 11.4527 5.6197 13.611 7.77802L15.5554 9.72245L9.23603 16.0418C9.8388 16.2752 10.3249 16.5668 10.7332 16.8002C11.4527 17.2474 11.8804 17.5002 12.9693 17.5002Z" fill="white"/>
<path d="M28.1942 9.72238C30.8789 9.72238 33.0552 7.54601 33.0552 4.86131C33.0552 2.17662 30.8789 0.000244141 28.1942 0.000244141C25.5095 0.000244141 23.3331 2.17662 23.3331 4.86131C23.3331 7.54601 25.5095 9.72238 28.1942 9.72238Z" fill="white"/>
</svg>
