<svg width="617" height="293" viewBox="0 0 617 293" fill="none" xmlns="http://www.w3.org/2000/svg">
<path d="M297.291 110.708C297.291 110.708 299.698 169.045 290.007 151.729C285.982 144.328 279.82 138.312 272.325 134.465C269.893 133.181 267.3 132.229 264.615 131.633L265.792 108.435C268.172 110.105 270.883 111.245 273.742 111.777C284.332 114.039 297.291 110.708 297.291 110.708Z" fill="#DB8B8B"/>
<path opacity="0.1" d="M273.737 111.808C275.959 115.244 277.021 119.302 276.766 123.385C276.511 127.469 274.953 131.364 272.32 134.496C269.888 133.212 267.294 132.26 264.61 131.665L265.787 108.466C268.167 110.136 270.878 111.276 273.737 111.808Z" fill="black"/>
<path d="M273.726 130.659C278.656 121.333 275.092 109.776 265.766 104.847C256.44 99.9171 244.884 103.481 239.954 112.807C235.025 122.133 238.589 133.689 247.915 138.619C257.241 143.548 268.797 139.984 273.726 130.659Z" fill="#DB8B8B"/>
<path opacity="0.1" d="M242.152 127.779C243.349 126.324 245.06 125.386 246.931 125.159C249.288 124.979 251.696 126.286 253.902 125.451C255.399 124.731 256.554 123.453 257.118 121.891C257.669 120.343 258.388 118.861 259.263 117.471C260.881 115.329 263.628 114.326 266.295 114.073C268.974 113.977 271.655 114.05 274.325 114.291C275.389 114.375 276.46 114.258 277.482 113.946C277.991 113.785 278.456 113.506 278.838 113.133C279.22 112.759 279.509 112.301 279.682 111.795C277.67 109.182 273.9 108.524 271.869 105.969C271.08 104.75 270.366 103.485 269.731 102.181C267.669 98.8282 263.794 97.0854 260.079 95.7892C256.081 94.3881 251.857 93.2414 247.654 93.7458C243.451 94.2502 239.284 96.7416 237.772 100.693C236.6 103.852 237.256 107.512 235.862 110.576C234.879 112.737 232.986 114.327 231.285 115.984C229.457 117.765 227.79 119.703 226.3 121.776C225.312 123.154 224.356 124.877 224.951 126.469C225.227 127.123 225.627 127.718 226.128 128.222L230.418 132.945C230.546 133.139 230.721 133.298 230.926 133.406C231.132 133.515 231.361 133.57 231.594 133.566C231.9 133.502 232.12 133.234 232.401 133.088C234.186 132.086 235.529 135.409 237.386 134.784C239.243 134.16 240.806 129.319 242.152 127.779Z" fill="black"/>
<path d="M241.948 127.117C243.144 125.662 244.856 124.724 246.726 124.497C249.083 124.318 251.492 125.624 253.698 124.789C255.195 124.069 256.35 122.791 256.914 121.229C257.465 119.681 258.184 118.199 259.058 116.809C260.677 114.667 263.424 113.664 266.091 113.411C268.769 113.315 271.451 113.388 274.12 113.629C275.185 113.713 276.256 113.596 277.277 113.284C277.787 113.123 278.252 112.844 278.634 112.471C279.016 112.097 279.305 111.639 279.477 111.133C277.465 108.52 273.696 107.862 271.665 105.307C270.876 104.088 270.162 102.823 269.527 101.519C267.465 98.1662 263.59 96.4235 259.875 95.1273C255.876 93.7262 251.653 92.5795 247.45 93.0839C243.247 93.5883 239.08 96.0797 237.568 100.031C236.396 103.19 237.051 106.85 235.658 109.914C234.674 112.075 232.782 113.665 231.08 115.322C229.253 117.103 227.585 119.041 226.096 121.114C225.107 122.492 224.151 124.215 224.746 125.807C225.023 126.461 225.423 127.057 225.923 127.56L230.214 132.283C230.342 132.477 230.516 132.636 230.722 132.745C230.927 132.853 231.157 132.908 231.39 132.904C231.695 132.84 231.916 132.572 232.197 132.426C233.982 131.424 235.325 134.747 237.182 134.122C239.039 133.498 240.602 128.657 241.948 127.117Z" fill="#472727"/>
<path d="M315.304 48.3456C315.304 48.3456 323.14 67.5987 318.357 88.3181C318.357 88.3181 317.445 94.6721 323.56 101.831C325.877 104.474 328.578 106.753 331.572 108.592L287.734 116.011L285.02 116.471L298.5 81.253C296.289 77.3067 294.92 72.9453 294.478 68.4435C294.035 63.9418 294.53 59.3972 295.931 55.0961L294.372 48.2033C294.372 48.2033 249.73 37.4116 244.293 44.7636C244.293 44.7636 238.739 47.2423 233.088 50.3149C229.661 52.2178 225.647 52.772 221.833 51.8687C218.019 50.9654 214.68 48.6698 212.471 45.4322C212.355 45.2593 212.239 45.0865 212.136 44.9079C207.825 37.9039 213.681 28.9559 221.884 29.8474C227.468 30.4232 233.012 31.3333 238.487 32.5727L247.142 33.2624L267.218 31.5027L304.309 30.4955C304.309 30.4955 312.678 30.5617 315.304 48.3456Z" fill="#DB8B8B"/>
<path d="M275.293 153.373L296.905 168.123L294.144 174.14L293.217 176.149C293.217 176.149 296.893 188.069 295.366 197.227C293.84 206.385 295.284 220.45 295.284 220.45L292.405 259.365L291.679 272.272C291.679 272.272 296.067 289.077 285.053 289.906C274.038 290.735 280.58 277.456 280.58 277.456L280.662 254.233C272.287 217.671 279.064 210.18 279.064 210.18L278.09 184.781C273.645 176.35 272.281 166.632 274.233 157.304C274.49 155.969 274.844 154.656 275.293 153.373Z" fill="#DB8B8B"/>
<path opacity="0.1" d="M327.959 106.955C329.941 109.857 332.348 112.445 335.1 114.631L290.687 116.718C290.278 115.893 289.797 115.105 289.25 114.364C288.483 113.305 287.609 112.327 286.641 111.447L288.823 108.902L294.727 102.012L296.772 99.6205C296.843 99.6579 296.886 99.7483 296.947 99.8034C305.719 109.1 320.552 108.152 327.959 106.955Z" fill="black"/>
<path opacity="0.1" d="M275.293 153.373L296.906 168.123L294.144 174.139C291.036 169.319 280.224 161.443 274.274 157.314C274.516 155.977 274.857 154.66 275.293 153.373Z" fill="black"/>
<path d="M340.631 110.271C350.646 121.972 363.472 130.935 377.903 136.316L379.696 137.003L379.93 137.092C379.93 137.092 395.576 137.31 393.649 142.344C391.722 147.377 398.762 149.547 397.686 156.47C396.61 163.393 397.628 189.491 390.895 194.773C384.161 200.055 373.715 201.304 373.715 201.304L299.151 172.762C299.074 172.626 298.989 172.486 298.89 172.352C294.799 166.257 272.287 155.134 272.287 155.134C272.988 153.906 273.619 152.639 274.179 151.34C275.87 147.479 277.396 142.935 278.149 140.632L278.601 139.198C283.205 136.431 285.716 131.214 286.738 128.543C287.1 127.607 287.527 126.697 288.016 125.82C292.056 118.511 282.693 112.229 282.693 112.229L284.553 109.44L289.584 101.889L291.326 99.2688C303.935 109.995 324.709 102.41 327.25 101.423L327.514 101.321C332.597 103.1 337.121 106.187 340.631 110.271Z" fill="#A0E3DD"/>
<path opacity="0.3" d="M274.22 151.345C280.281 153.665 299.815 162.802 299.317 172.804L299.158 172.744C299.081 172.607 298.996 172.467 298.897 172.333C294.806 166.238 272.294 155.116 272.294 155.116C273.006 153.895 273.648 152.636 274.22 151.345Z" fill="white"/>
<path opacity="0.3" d="M327.104 101.696C319.746 118.062 298.672 107.583 289.445 101.953L291.202 99.3427C303.741 110.136 324.554 102.678 327.104 101.696Z" fill="white"/>
<g opacity="0.1">
<path opacity="0.1" d="M332.429 107.123C332.382 107.104 332.33 107.101 332.281 107.113C332.231 107.126 332.187 107.154 332.155 107.193C329.401 110.262 332.758 107.014 329.401 110.262C329.269 110.384 328.868 109.709 328.868 109.709C333.685 112.102 337.788 115.722 340.762 120.203C349.296 133.025 360.95 143.467 374.628 150.546L376.325 151.444L376.538 151.556C376.538 151.556 392.044 153.655 389.525 158.421C387.006 163.186 393.733 166.187 391.832 172.93C390.09 179.113 388.159 201.449 382.214 208.566C382.838 208.263 383.449 207.941 384.034 207.583C391.368 203.146 393.486 177.119 395.388 170.376C397.289 163.633 390.567 160.623 393.081 155.866C395.595 151.11 380.093 149.001 380.093 149.001L379.872 148.885L378.175 147.987C364.497 140.908 352.843 130.466 344.309 117.644C341.342 113.155 337.244 109.526 332.429 107.123Z" fill="black"/>
<path opacity="0.1" d="M280.305 138.072C280.056 138.2 279.793 138.333 279.54 138.448L279.297 138.908C279.661 138.648 279.985 138.355 280.305 138.072Z" fill="black"/>
</g>
<path d="M512.447 226.652L525.236 242.28L516.199 244.697L510.112 244.443L504.812 244.221L493.48 250.979L481.992 257.348C480.01 258.449 478.201 259.838 476.625 261.468C469.723 268.576 465.768 264.631 465.768 264.631L453.922 257.385L445.67 252.345L455.221 227.984L461.112 232.569L468.568 238.364C474.447 230.387 491.706 232.316 491.706 232.316C498.651 231.61 502.497 229.492 504.303 228.128C504.791 227.782 505.236 227.379 505.628 226.928L512.447 226.652Z" fill="#DB8B8B"/>
<path opacity="0.1" d="M564.242 116.658L564.02 116.801L564.085 116.677L564.242 116.658Z" fill="black"/>
<path opacity="0.1" d="M512.447 226.652L525.236 242.28L516.199 244.698L510.112 244.444L518.047 240.132C517.416 231.439 505.643 228.44 504.317 228.124C504.805 227.778 505.249 227.375 505.641 226.924L512.447 226.652Z" fill="black"/>
<path d="M504.863 227.903C504.863 227.903 518.071 230.734 518.727 239.937L507.853 245.828C507.853 245.828 511.251 249.886 519.878 247.196C522.881 246.087 526.1 245.685 529.285 246.022C532.469 246.36 535.532 247.427 538.237 249.141C538.237 249.141 549.092 253.748 549.24 247.198C549.24 247.198 551.823 238.032 537.342 230.933C537.342 230.933 523.718 227.927 520.706 221.449C520.626 221.271 520.551 221.092 520.481 220.911C518.005 214.061 507.673 215.804 507.673 215.804C507.673 215.804 498.17 223.811 504.863 227.903Z" fill="#535461"/>
<path opacity="0.1" d="M392.684 155.589C390.165 160.354 396.893 163.356 394.991 170.099C393.09 176.842 390.958 202.873 383.638 207.306C376.318 211.739 365.797 211.72 365.797 211.72L364.913 211.253C376.264 203.408 377.731 187.002 377.731 187.002C384.626 178.408 380.778 155.324 379.463 148.589L379.684 148.706C379.684 148.706 395.198 150.833 392.684 155.589Z" fill="black"/>
<path opacity="0.1" d="M445.698 252.314L455.249 227.954L461.139 232.538C460.684 241.403 456.285 252.187 453.968 257.319L445.698 252.314Z" fill="black"/>
<path opacity="0.1" d="M463.36 138.077C470.742 143.37 472.875 155.876 473.453 163.919L461.673 166.583L453.304 139.446L463.36 138.077Z" fill="black"/>
<path d="M378.588 187.478C378.588 187.478 377.126 203.875 365.77 211.729L394.074 229.461C394.074 229.461 407.29 235.892 413.721 241.509C420.152 247.125 451.646 259.892 451.646 259.892C451.646 259.892 465.405 232.814 458.193 222.362C458.193 222.362 441.624 199.205 432.695 197.245L450.254 176.609L472.717 170.747C472.717 170.747 474.052 140.98 459.045 135.819L404.451 147.964L379.968 147.205C379.968 147.205 386.708 177.36 378.588 187.478Z" fill="#A0E3DD"/>
<path opacity="0.1" d="M472.718 170.746L450.241 176.59L432.696 197.245C432.918 197.295 433.145 197.358 433.38 197.426C433.833 197.573 434.275 197.754 434.701 197.966C443.902 202.365 458.207 222.358 458.207 222.358C465.423 232.823 451.66 259.888 451.66 259.888C451.66 259.888 420.169 247.179 413.739 241.518C407.309 235.857 394.092 229.47 394.092 229.47L366.842 212.397L365.796 211.742C368.917 209.524 371.516 206.652 373.412 203.326C376.083 198.607 377.83 193.423 378.558 188.05L378.615 187.492C378.796 187.263 378.971 187.024 379.141 186.775C385.083 178.016 381.88 157.241 380.494 149.869C380.179 148.198 379.964 147.213 379.964 147.213L404.451 147.964L459.058 135.837C459.528 135.997 459.987 136.186 460.432 136.405C473.988 142.857 472.718 170.746 472.718 170.746Z" fill="black"/>
<path opacity="0.3" d="M284.598 109.404C299.106 126.639 283.165 137.765 278.19 140.637L278.642 139.204C283.245 136.436 285.756 131.219 286.779 128.548C287.141 127.612 287.568 126.702 288.057 125.825C292.096 118.516 282.733 112.234 282.733 112.234L284.598 109.404Z" fill="white"/>
<path opacity="0.1" d="M377.19 190.381C376.114 195.604 373.06 205.64 364.917 211.266L366.778 212.431C375.177 204.824 376.951 192.438 377.19 190.381Z" fill="black"/>
<path opacity="0.1" d="M380.87 179.737C380.409 182.378 379.347 184.877 377.766 187.043C377.766 187.043 377.659 188.208 377.304 190.057C379.236 187.537 380.312 183.853 380.87 179.737Z" fill="black"/>
<path opacity="0.1" d="M460.446 136.4C473.072 143.606 471.878 170.302 471.878 170.302L471.392 170.43C471.273 162.8 469.816 142.598 457.698 138.432L403.078 150.563L380.459 149.851C380.143 148.179 379.929 147.195 379.929 147.195L404.416 147.945L459.023 135.818C459.509 135.981 459.985 136.175 460.446 136.4Z" fill="black"/>
<path opacity="0.1" d="M431.326 199.835C440.269 201.791 456.824 224.952 456.824 224.952C458.955 228.046 459.26 232.585 458.622 237.451C459.813 231.475 459.904 225.63 457.332 221.895C457.332 221.895 442.632 201.343 433.454 197.329L431.326 199.835Z" fill="black"/>
<path opacity="0.3" d="M315.687 143.939C313.22 150.383 318.693 158.464 327.921 161.996C337.148 165.528 346.617 163.167 349.084 156.723C351.551 150.279 346.078 142.198 336.85 138.666C327.623 135.135 318.154 137.495 315.687 143.939ZM342.22 154.095C340.768 157.887 335.19 159.285 329.754 157.205C324.319 155.124 321.096 150.368 322.551 146.567C324.006 142.766 329.581 141.377 335.017 143.457C340.452 145.538 343.671 150.304 342.22 154.095Z" fill="white"/>
<path d="M595.403 150.273C576.968 119.969 540.893 94.1175 497.312 89.904C485.789 88.79 473.758 89.2368 463.067 92.6879C449.033 97.2181 438.691 106.362 428.237 114.797C406.104 132.652 381.336 148.508 354.424 162.052C341.142 168.735 326.895 174.97 311.125 176.679C279.505 180.108 248.23 163.722 233.81 142.065C224.802 128.536 220.639 112.653 213.357 98.5812C204.971 98.569 194.979 98.5714 184.23 98.609C154.517 98.7131 130.331 99.0467 130.331 99.0467C130.331 99.0467 159.079 70.109 184.122 80.8302C192.125 84.2564 200.507 87.3138 208.21 89.8894C203.834 83.4923 198.314 77.7364 190.72 73.1086C175.746 63.9834 155.465 61.4238 136.292 62.1034C116.158 62.817 95.8401 66.9132 79.4801 75.8592C50.3359 91.7959 38.3006 119.847 28 145.986L52.8981 155.471C63.5778 148.454 79.1947 141.514 93.5893 147.676C118.632 158.398 147.399 165.516 147.399 165.516C147.399 165.516 123.41 165.351 93.6971 165.455C88.7067 165.473 83.8782 165.497 79.2881 165.524L355.717 270.833C446.891 271.809 515.637 268.062 602.273 270.833C606.792 270.978 611.5 270.833 616 270.833C616.239 237.449 613.837 180.577 595.403 150.273ZM506.872 159.356C477.159 159.46 452.974 159.794 452.974 159.794C452.974 159.794 481.722 130.856 506.764 141.577C531.807 152.298 560.574 159.417 560.574 159.417C560.574 159.417 536.585 159.252 506.872 159.356Z" fill="white"/>
<path d="M567.403 169.273C548.968 138.969 512.893 113.117 469.312 108.904C457.789 107.79 445.758 108.237 435.067 111.688C421.033 116.218 410.691 125.362 400.237 133.797C378.104 151.652 353.336 167.508 326.424 181.052C313.142 187.735 298.895 193.97 283.125 195.679C251.505 199.108 220.23 182.722 205.81 161.065C196.802 147.536 192.639 131.653 185.357 117.581C176.971 117.569 166.979 117.571 156.23 117.609C126.517 117.713 102.331 118.047 102.331 118.047C102.331 118.047 131.079 89.109 156.122 99.8302C164.125 103.256 172.507 106.314 180.21 108.889C175.834 102.492 170.314 96.7364 162.72 92.1086C147.746 82.9834 127.465 80.4238 108.292 81.1034C88.1585 81.817 67.8401 85.9132 51.4801 94.8592C22.3359 110.796 10.3006 138.847 0 164.986L24.8981 174.471C35.5778 167.454 51.1947 160.514 65.5893 166.676C90.6318 177.398 119.399 184.516 119.399 184.516C119.399 184.516 95.4102 184.351 65.6971 184.455C60.7067 184.473 55.8782 184.497 51.2881 184.524L169 289.833H327.717C418.891 290.809 487.637 287.062 574.273 289.833C578.792 289.978 590.5 289.833 594.5 289.833C594.739 256.449 585.837 199.577 567.403 169.273ZM478.872 178.356C449.159 178.46 424.974 178.794 424.974 178.794C424.974 178.794 453.722 149.856 478.764 160.577C503.807 171.298 532.574 178.417 532.574 178.417C532.574 178.417 508.585 178.252 478.872 178.356Z" fill="#A0E3DD"/>
</svg>
