<svg width="22" height="35" viewBox="0 0 22 35" fill="none" xmlns="http://www.w3.org/2000/svg">
<path d="M12.2093 6.51163C14 6.51163 15.4651 5.04651 15.4651 3.25581C15.4651 1.46512 14 0 12.2093 0C10.4186 0 8.95349 1.46512 8.95349 3.25581C8.95349 5.04651 10.4186 6.51163 12.2093 6.51163ZM6.18605 12.0465L1.62791 35H5.04651L7.97674 21.9767L11.3953 25.2326V35H14.6512V22.7907L11.2326 19.5349L12.2093 14.6512C14.3256 17.093 17.5814 18.7209 21.1628 18.7209V15.4651C18.0698 15.4651 15.4651 13.8372 14.1628 11.5581L12.5349 8.95349C11.8837 7.97674 10.907 7.32558 9.76744 7.32558C9.27907 7.32558 8.95349 7.48837 8.46512 7.48837L0 11.0698V18.7209H3.25581V13.186L6.18605 12.0465Z" fill="white"/>
</svg>
